<?xml version="1.0" standalone="no"?>
<!DOCTYPE svg PUBLIC "-//W3C//DTD SVG 20010904//EN"
 "http://www.w3.org/TR/2001/REC-SVG-20010904/DTD/svg10.dtd">
<svg version="1.0" xmlns="http://www.w3.org/2000/svg"
 width="260.000000pt" height="260.000000pt" viewBox="0 0 260.000000 260.000000"
 preserveAspectRatio="xMidYMid meet">
<metadata>
Created by potrace 1.14, written by Peter Selinger 2001-2017
</metadata>
<g transform="translate(0.000000,260.000000) scale(0.100000,-0.100000)"
fill="#000000" stroke="none">
<path d="M12 2578 c-18 -35 -27 -13 121 -298 38 -74 89 -173 113 -220 41 -81
59 -101 375 -417 l332 -333 -49 -52 c-26 -29 -69 -75 -95 -103 -83 -90 -100
-108 -225 -250 -168 -192 -317 -374 -404 -495 -22 -30 -43 -59 -47 -65 -26
-33 -95 -159 -114 -207 -25 -67 -20 -123 11 -133 54 -17 164 28 314 127 67 46
385 293 406 318 3 3 39 34 80 69 41 35 111 96 154 135 43 39 87 78 96 86 9 8
63 58 119 110 57 52 106 96 109 97 4 2 215 -206 470 -461 480 -481 486 -486
566 -486 46 0 99 29 159 88 79 77 97 114 92 187 -3 40 -11 66 -28 88 -14 18
-225 233 -471 478 l-446 445 86 90 c177 183 222 231 294 314 40 47 76 87 80
90 14 11 130 172 130 180 0 5 15 12 33 15 54 12 151 60 191 95 71 62 100 126
111 240 3 36 8 83 11 105 15 135 15 147 -2 166 -15 17 -27 19 -93 14 -42 -4
-83 -8 -91 -10 -8 -2 -46 -7 -85 -10 -103 -9 -157 -30 -216 -83 -52 -46 -107
-143 -124 -217 -5 -22 -22 -40 -63 -67 -92 -59 -315 -255 -535 -471 l-90 -87
-328 328 c-313 312 -333 330 -416 374 -350 182 -483 248 -500 248 -11 0 -25
-10 -31 -22z m2474 -143 c-3 -30 -9 -81 -12 -112 -12 -112 -54 -177 -142 -219
-84 -40 -89 -39 -177 49 -85 85 -88 93 -60 160 42 101 114 151 229 161 38 3
70 7 72 8 1 2 24 4 49 6 l47 2 -6 -55z m-1997 -170 l74 -37 -94 -94 c-51 -51
-96 -90 -100 -86 -3 4 -50 92 -104 195 l-97 189 123 -65 c68 -35 157 -81 198
-102z m1595 -184 c63 -64 67 -70 56 -92 -28 -53 -256 -319 -274 -319 -5 0 -53
44 -107 99 l-98 99 67 60 c140 126 262 222 282 222 3 0 36 -31 74 -69z m-294
-496 c0 -11 -320 -336 -506 -515 -174 -166 -342 -320 -504 -460 -34 -30 -70
-62 -79 -70 -9 -8 -75 -62 -146 -118 -72 -57 -139 -111 -150 -120 -69 -58
-252 -172 -274 -172 -12 0 47 100 117 200 45 64 262 340 292 370 8 9 40 45 70
80 212 247 477 528 774 819 98 97 183 181 190 188 8 9 36 -13 114 -90 56 -56
102 -106 102 -112z m407 -987 c35 -34 63 -66 63 -70 0 -11 -178 -188 -188
-188 -4 0 -36 28 -70 63 l-62 63 92 96 c51 53 95 96 98 97 2 1 33 -27 67 -61z
m223 -223 c69 -69 75 -78 74 -115 -1 -35 -9 -48 -57 -97 -49 -48 -62 -56 -97
-57 -37 -1 -46 5 -117 77 l-78 77 95 95 c52 52 97 95 100 95 3 0 39 -34 80
-75z"/>
</g>
</svg>
